<?xml version="1.0" encoding="UTF-8" standalone="no"?>
<!-- Created with Inkscape (http://www.inkscape.org/) -->

<svg
   width="210mm"
   height="297mm"
   viewBox="0 0 210 297"
   version="1.1"
   id="svg5"
   sodipodi:docname="keeShepherd.svg"
   inkscape:version="1.2 (dc2aedaf03, 2022-05-15)"
   xmlns:inkscape="http://www.inkscape.org/namespaces/inkscape"
   xmlns:sodipodi="http://sodipodi.sourceforge.net/DTD/sodipodi-0.dtd"
   xmlns="http://www.w3.org/2000/svg"
   xmlns:svg="http://www.w3.org/2000/svg">
  <sodipodi:namedview
     id="namedview7"
     pagecolor="#ffffff"
     bordercolor="#666666"
     borderopacity="1.0"
     inkscape:pageshadow="2"
     inkscape:pageopacity="0.0"
     inkscape:pagecheckerboard="0"
     inkscape:document-units="mm"
     showgrid="false"
     inkscape:zoom="0.815"
     inkscape:cx="298.77301"
     inkscape:cy="546.01227"
     inkscape:window-width="1920"
     inkscape:window-height="1009"
     inkscape:window-x="2992"
     inkscape:window-y="-8"
     inkscape:window-maximized="1"
     inkscape:current-layer="layer1"
     inkscape:showpageshadow="2"
     inkscape:deskcolor="#d1d1d1" />
  <defs
     id="defs2">
    <clipPath
       id="clip0">
      <rect
         x="48"
         y="53"
         width="414"
         height="409"
         id="rect53" />
    </clipPath>
    <clipPath
       id="clip2">
      <rect
         x="96"
         y="96"
         width="366"
         height="366"
         id="rect59" />
    </clipPath>
    <clipPath
       id="clip3">
      <rect
         x="96"
         y="96"
         width="366"
         height="366"
         id="rect62" />
    </clipPath>
    <clipPath
       id="clip4">
      <path
         d="M47.9998 202.171 197.884 53.6592 353.223 210.433 203.339 358.946Z"
         fill-rule="evenodd"
         clip-rule="evenodd"
         id="path65" />
    </clipPath>
    <clipPath
       id="clip6">
      <path
         d="M47.9998 202.171 197.884 53.6592 353.223 210.433 203.339 358.946Z"
         fill-rule="evenodd"
         clip-rule="evenodd"
         id="path71" />
    </clipPath>
    <clipPath
       clipPathUnits="userSpaceOnUse"
       id="clipPath1857">
      <path
         d="M 6.3988711e-7,1.0290489e-6 211.00001,4.6632748e-4 V 210.99984 l -211.00071481352,4.8e-4 z"
         fill-rule="evenodd"
         clip-rule="evenodd"
         id="path1859"
         style="stroke-width:0.977776" />
    </clipPath>
    <clipPath
       clipPathUnits="userSpaceOnUse"
       id="clipPath3244">
      <path
         id="path3246"
         style="fill:#ff0000;fill-opacity:1;fill-rule:nonzero;stroke:none;stroke-width:0.411715"
         d="M 117.51788,119.49626 V 438.38592 H 437.67404 V 119.49626 Z m 116.19461,107.71102 c 0.34964,-0.005 0.7788,0.16018 1.20539,0.56531 0.29602,0.28113 0.59501,0.56112 0.89982,0.83308 0.32644,0.24951 0.6325,0.52352 0.94727,0.78724 0.33568,0.30867 0.642,0.6457 0.96898,0.96335 0.2851,0.32829 0.60066,0.62688 0.92555,0.91511 0.41599,0.31826 0.71329,0.74847 1.03894,1.15071 0.24588,0.2895 0.4157,0.63986 0.68753,0.90706 0.24746,0.21044 0.50093,0.41172 0.75589,0.61355 0.33283,0.24047 0.65007,0.50494 0.95048,0.78483 1.35767,1.26493 0.10626,2.62733 -1.24158,1.42975 0.0373,0.17922 0.0702,0.35945 0.0965,0.54118 0.15716,0.87842 0.20911,1.77395 0.0498,2.65766 -0.21679,1.08375 -0.55571,2.13407 -1.05341,3.12405 -0.27134,0.55106 -0.33944,0.73103 -0.69477,1.25927 -0.43739,0.65023 -1.0143,1.19583 -1.59861,1.71038 -0.88331,0.68043 -1.81061,1.33244 -2.88925,1.66054 -0.27749,0.0516 -0.55193,0.12954 -0.83308,0.15439 -0.77763,0.0687 -1.52622,-0.12553 -2.26443,-0.33693 -0.44712,-0.14136 -0.91825,-0.19925 -1.37426,-0.31281 0.11599,0.92616 -0.96081,1.45877 -1.88328,0.35221 -0.20041,-0.2404 -0.47584,-0.41623 -0.63285,-0.69557 -0.24947,-0.35057 -0.4918,-0.70505 -0.71327,-1.07432 -0.22041,-0.36425 -0.48897,-0.70809 -0.8387,-0.95611 -0.37196,-0.29082 -0.79507,-0.50484 -1.18771,-0.76554 -0.41525,-0.29476 -0.78955,-0.62549 -1.12176,-1.0124 -0.31028,-0.33445 -0.60889,-0.67937 -0.90786,-1.02366 -0.31611,-0.34918 -0.65151,-0.68019 -0.95692,-1.03894 -0.75623,-0.8883 -0.46801,-1.65404 0.13911,-1.79643 -0.0187,-0.0477 -0.0375,-0.0951 -0.0555,-0.14313 -1.36731,-3.64771 0.51521,-5.51963 2.65042,-4.67603 0.21155,-0.47387 0.46989,-0.92296 0.78161,-1.34531 0.4851,-0.60186 1.03021,-1.1394 1.66777,-1.58092 0.38027,-0.27021 0.77192,-0.53112 1.18851,-0.74141 0.58421,-0.39414 1.2069,-0.72559 1.87845,-0.94727 0.50405,-0.13994 0.97849,-0.21831 1.44744,-0.22837 0.60293,-0.013 1.19702,0.0873 1.83342,0.31441 0.0939,0.0368 0.1875,0.0749 0.28064,0.11338 -0.1332,-0.12721 -0.27397,-0.24669 -0.40126,-0.37955 -0.89543,-0.93453 -0.5143,-1.77171 0.25491,-1.78276 z" />
    </clipPath>
    <clipPath
       clipPathUnits="userSpaceOnUse"
       id="clipPath3254">
      <path
         id="path3256"
         style="stroke-width:0.977776"
         d="M 211.00002,0.00100542 3.1419685e-4,-1.7848294e-4 -6.5957206e-4,211.00004 211.00018,211.00013 Z M 114.2992,141.97148 c 0.2519,0.23186 0.44047,0.63284 0.45836,1.19504 0.0124,0.39011 0.0277,0.78146 0.0528,1.17127 0.0563,0.38911 0.0808,0.78115 0.11879,1.17207 0.0212,0.43551 0.002,0.87052 0.0103,1.30628 -0.0285,0.41479 -0.0145,0.82992 0.0134,1.24429 0.0715,0.49606 -0.0201,0.98829 -0.0719,1.4806 -0.0291,0.36205 -0.15508,0.71427 -0.15004,1.07866 0.0277,0.30943 0.066,0.61669 0.10509,0.92532 0.0672,0.38728 0.10638,0.78037 0.12277,1.1726 0.0741,1.77263 -1.77375,1.85574 -1.88828,0.1355 -0.0997,0.14678 -0.20315,0.29134 -0.31236,0.43247 -0.50663,0.70232 -1.10005,1.34545 -1.83517,1.83844 -0.9168,0.59012 -1.89682,1.07536 -2.94715,1.41278 -0.58061,0.19165 -0.75567,0.26805 -1.37987,0.38768 -0.76836,0.14727 -1.56219,0.12959 -2.33942,0.0859 -1.10638,-0.13229 -2.224,-0.31349 -3.22114,-0.8165 -0.23343,-0.1517 -0.48324,-0.28342 -0.70045,-0.45574 -0.600762,-0.4766 -0.995801,-1.11226 -1.371392,-1.75259 -0.218116,-0.39687 -0.512033,-0.75322 -0.756036,-1.13719 -0.569479,0.70703 -1.709265,0.34412 -1.585687,-1.02809 0.02684,-0.29813 -0.04505,-0.60288 0.04003,-0.89824 0.06954,-0.40596 0.146903,-0.80975 0.249491,-1.20956 0.09979,-0.3957 0.151039,-0.80991 0.07718,-1.21371 -0.05953,-0.4478 -0.209447,-0.87785 -0.304867,-1.31911 -0.0875,-0.47962 -0.120595,-0.9561 -0.08427,-1.44241 0.015,-0.43592 0.04566,-0.8711 0.0756,-1.30611 0.02122,-0.44986 0.01595,-0.90034 0.05151,-1.34949 0.08823,-1.11452 0.843941,-1.47011 1.375608,-1.15472 0.01619,-0.0355 0.03235,-0.0709 0.04896,-0.10622 1.596162,-3.39735 4.250953,-3.40185 5.173933,-1.39212 0.48381,-0.17947 0.98341,-0.31061 1.50212,-0.38768 0.7682,-0.0823 1.53377,-0.0806 2.29743,0.0486 0.46031,0.0724 0.92216,0.15874 1.36609,0.29625 0.69241,0.12546 1.36803,0.31937 2.00109,0.62072 0.45655,0.24414 0.84873,0.51018 1.18893,0.8189 0.43739,0.39694 0.78888,0.86477 1.08107,1.44727 0.0408,0.0882 0.0805,0.17701 0.11955,0.26585 -0.005,-0.17602 -0.021,-0.3519 -0.0179,-0.52778 0.0217,-1.23722 0.88168,-1.5493 1.43587,-1.03919 z" />
    </clipPath>
    <clipPath
       clipPathUnits="userSpaceOnUse"
       id="clipPath3264">
      <path
         id="path3266"
         style="fill:#ff0000;fill-opacity:1;fill-rule:nonzero;stroke:none;stroke-width:0.264583"
         d="M 108.43196,9.6458474 207.30962,105.32805 300.54423,8.979714 201.66657,-86.702489 Z m 7.55288,-5.8975343 c 0.15393,-0.1637137 0.42201,-0.2880791 0.79974,-0.3040391 0.26212,-0.011077 0.52504,-0.02403 0.78685,-0.043256 0.26111,-0.039253 0.52442,-0.058144 0.78688,-0.085649 0.29256,-0.017087 0.5851,-0.00793 0.87792,-0.016979 0.27901,0.01504 0.55793,0.00275 0.83622,-0.018485 0.33288,-0.049877 0.66442,0.00508 0.99571,0.034446 0.24357,0.015824 0.48127,0.093975 0.72614,0.087841 0.20777,-0.020232 0.414,-0.047338 0.62114,-0.074887 0.2598,-0.046242 0.52371,-0.074559 0.78721,-0.088213 1.19088,-0.061708 1.26086,1.1250461 0.10543,1.2123158 0.0994,0.06288 0.19736,0.1282323 0.29305,0.1972849 0.4759,0.3199774 0.91268,0.6961889 1.24962,1.1646519 0.40361,0.5844358 0.7372,1.2103316 0.97197,1.8825857 0.13323,0.3715737 0.18591,0.4834539 0.27106,0.8836093 0.10482,0.4925735 0.099,1.0028188 0.0755,1.5026134 -0.0805,0.711998 -0.19381,1.431613 -0.52432,2.076366 -0.10018,0.151204 -0.18682,0.31278 -0.30099,0.453725 -0.31578,0.389833 -0.74002,0.648735 -1.16755,0.895176 -0.2651,0.143316 -0.50237,0.335016 -0.7586,0.494863 0.47956,0.360321 0.24438,1.095621 -0.67896,1.02712 -0.20058,-0.01488 -0.40487,0.03374 -0.60404,-0.01858 -0.27338,-0.04146 -0.54538,-0.08796 -0.81489,-0.150706 -0.26672,-0.06098 -0.54551,-0.09061 -0.81635,-0.03995 -0.30053,0.04181 -0.58844,0.141567 -0.88431,0.206388 -0.3217,0.06004 -0.6417,0.08508 -0.96884,0.06562 -0.29311,-0.0062 -0.58584,-0.02241 -0.87846,-0.0382 -0.30252,-0.01006 -0.60527,-0.0031 -0.90743,-0.02238 -0.74977,-0.04784 -0.99452,-0.530626 -0.78658,-0.874774 -0.024,-0.01012 -0.0479,-0.02022 -0.0718,-0.03062 -2.2956,-0.99868 -2.3188,-2.704592 -0.97501,-3.313665 -0.1243,-0.309468 -0.21625,-0.629462 -0.27199,-0.9621654 -0.0612,-0.4929874 -0.0658,-0.9849497 0.0152,-1.4766966 0.0452,-0.2963665 0.0997,-0.5938322 0.18873,-0.8801942 0.0791,-0.4459337 0.20427,-0.8816227 0.402,-1.2908194 0.16063,-0.2953143 0.33646,-0.54944 0.54138,-0.7705033 0.26348,-0.2842216 0.57524,-0.5138039 0.96454,-0.706189 0.059,-0.026953 0.11836,-0.053138 0.17777,-0.078935 -0.11827,0.00466 -0.23636,0.016276 -0.3546,0.01569 -0.83174,-0.00412 -1.04803,-0.5542516 -0.70938,-0.914415 z" />
    </clipPath>
    <clipPath
       clipPathUnits="userSpaceOnUse"
       id="clipPath3422">
      <path
         id="path3424"
         style="stroke-width:0.999999"
         d="M 96.000119,96.000342 V 462.00005 H 461.99983 V 96.000342 Z M 268.54023,247.05004 c 0.70824,-8.2e-4 1.56605,0.39143 2.36656,1.33244 0.43726,0.51399 0.86639,1.03726 1.26651,1.58093 0.32259,0.42482 0.66101,0.83703 0.97863,1.2657 0.25331,0.38964 0.53514,0.75442 0.84675,1.09844 0.36327,0.4344 0.82826,0.75759 1.26972,1.10568 0.61677,0.4856 1.21072,0.99868 1.7522,1.56726 0.37374,0.42224 0.7139,0.86783 1.04779,1.32118 0.0468,0.0661 0.0939,0.13249 0.14072,0.19863 2.17782,3.07141 -0.9316,5.27297 -3.10395,2.19769 -0.0364,-0.0517 -0.0729,-0.10354 -0.10936,-0.1552 -0.23881,-0.32935 -0.48442,-0.65049 -0.74945,-0.96013 -0.40024,-0.44059 -0.87512,-0.80567 -1.33325,-1.18288 -0.61033,-0.48124 -1.2364,-0.94901 -1.74095,-1.54635 -0.39264,-0.43762 -0.76053,-0.89508 -1.08236,-1.38793 -0.31829,-0.43569 -0.66834,-0.84703 -0.98908,-1.28098 -0.38412,-0.53455 -0.82112,-1.02936 -1.23595,-1.53991 -1.59523,-1.96336 -0.77474,-3.61306 0.67547,-3.61457 z m -8.03006,7.7655 c 0.88651,-0.005 1.94836,0.34362 3.07902,1.18931 1.01213,0.75703 1.97576,1.57342 2.92785,2.40355 0.59712,0.51791 1.18318,1.04971 1.74577,1.60504 0.42457,0.38926 0.87735,0.74496 1.30912,1.12659 0.71811,0.64209 1.3278,1.37807 1.86318,2.17598 0.5466,0.82341 0.86762,1.74078 1.0518,2.7043 0.1309,1.34902 -0.16964,2.2876 -0.96094,3.37574 -0.50548,0.58381 -1.10085,1.08008 -1.66857,1.60103 -0.57456,0.52273 -1.20039,0.98092 -1.8479,1.40803 -0.74101,0.4815 -1.54998,0.82553 -2.38344,1.1097 -0.57552,0.20215 -1.1587,0.38133 -1.72728,0.6023 -0.58146,0.26603 -1.15369,0.54746 -1.7514,0.7784 -0.83971,0.29472 -1.70354,0.34678 -2.5692,0.23722 -0.19111,2.28298 -3.05304,3.30024 -5.70129,0.38517 -0.42092,-0.46327 -0.81606,-0.9479 -1.22952,-1.41768 -0.46486,-0.51377 -0.94547,-1.01628 -1.52543,-1.4024 -0.99003,-0.71069 -1.89904,-1.41268 -2.36335,-2.59092 -0.35449,-0.86506 -0.62633,-1.76061 -0.58058,-2.70751 0.0596,-1.23401 0.26056,-1.67951 0.56128,-1.67661 0.94327,0.009 2.8681,4.42346 4.49027,2.74772 -0.12023,-0.63292 -0.12913,-1.27292 -0.0828,-1.95163 0.0893,-0.51539 0.19646,-1.03819 0.34095,-1.54876 -0.3689,-0.44963 -0.24739,-0.51928 0.15037,-0.45031 0.0415,-0.10896 0.0598,-0.22678 0.11017,-0.33211 0.0993,-0.20766 0.2225,-0.40318 0.33371,-0.60471 0.52036,-0.79197 1.28243,-1.34223 2.07145,-1.83744 0.29069,-0.20117 0.35581,-0.23852 0.55002,-0.45674 0.57692,-0.62776 1.26326,-1.13155 2.07788,-1.41126 0.14944,-0.0513 0.30317,-0.0901 0.45675,-0.12785 -2.22096,-2.35436 -1.10676,-4.91968 1.27213,-4.93415 z m -18.84965,18.58107 c 0.60767,-0.0178 1.34642,0.22986 2.12854,0.85318 0.61904,0.49336 1.21849,1.00997 1.81492,1.53026 0.60187,0.51816 1.15044,1.08952 1.62515,1.72567 0.33358,0.44199 0.69943,0.85781 1.04296,1.29224 0.35691,0.49935 0.75408,0.96522 1.1475,1.43537 0.2639,0.32614 0.61955,0.55239 0.95129,0.80172 0.4439,0.26945 0.87187,0.5557 1.28017,0.87892 0.43689,0.4121 0.24439,0.22345 0.58139,0.56289 2.65275,2.67211 -0.0504,5.35261 -2.70027,2.67776 -0.21028,-0.21221 -0.12962,-0.11977 -0.2525,-0.26697 -0.37935,-0.30619 -0.80022,-0.53633 -1.19896,-0.8162 -0.5621,-0.42601 -1.13829,-0.84084 -1.58012,-1.39999 -0.41539,-0.49831 -0.83519,-0.99164 -1.21504,-1.5182 -0.37186,-0.47342 -0.77517,-0.9218 -1.13061,-1.40804 -0.28666,-0.4226 -0.68283,-0.75664 -1.05422,-1.10166 -0.54045,-0.47378 -1.08688,-0.94134 -1.64686,-1.39195 -2.15421,-1.73345 -1.47335,-3.80589 0.20666,-3.855 z m 52.50095,0.39643 c 0.027,-4.1e-4 0.0545,-4.1e-4 0.082,0 0.58693,0.0119 1.28755,0.26113 2.03205,0.8371 0.54587,0.42233 1.02435,0.92031 1.54393,1.37346 0.50557,0.47448 0.98302,0.97858 1.47317,1.46915 0.37833,0.40601 0.71703,0.84259 1.12015,1.22469 0.47064,0.41692 0.86263,0.90977 1.28903,1.36944 0.42794,0.40362 0.64614,0.98897 1.04456,1.41205 0.29633,0.38638 0.64178,0.72931 0.97461,1.08317 0.18771,0.21608 0.404,0.40473 0.61275,0.59988 2.75046,2.57128 0.15171,5.35021 -2.59815,2.77828 -0.27045,-0.25295 -0.54613,-0.50174 -0.79207,-0.77921 -0.39531,-0.42598 -0.80875,-0.83612 -1.16197,-1.29948 -0.30643,-0.39622 -0.58271,-0.81285 -0.87731,-1.21745 -0.36873,-0.40223 -0.71106,-0.83041 -1.11774,-1.19574 -0.42243,-0.40519 -0.80714,-0.84092 -1.18449,-1.28742 -0.42917,-0.42956 -0.85031,-0.86791 -1.2842,-1.29224 -0.46527,-0.40656 -0.89801,-0.84772 -1.37747,-1.23675 -2.15856,-1.75146 -1.48012,-3.80904 0.22113,-3.83893 z m -5.03869,10.84452 c 0.47207,-0.006 0.94506,0.0261 1.41688,0.10454 0.66238,0.11383 1.31825,0.26853 1.94118,0.52671 0.71345,0.27022 1.40945,0.59165 2.0248,1.04939 0.66805,0.49602 1.28895,1.05662 1.71361,1.78356 0.0975,0.17374 0.2054,0.34194 0.2927,0.52108 0.39156,0.80411 0.53003,1.69405 0.56209,2.57965 0.006,0.96288 -0.10942,1.90926 -0.25491,2.8603 -0.10989,0.88141 -0.0892,1.77745 -0.19782,2.66007 -0.0923,1.20901 -0.14154,2.42593 -0.39965,3.61537 -0.51524,2.11437 -1.16249,3.47159 -3.03881,4.71302 -1.37321,0.74286 -2.82685,1.34248 -4.36805,1.63238 -1.62401,0.27028 -3.28699,0.43962 -4.90198,0.01 -0.22246,-0.0735 -0.4482,-0.13849 -0.66743,-0.22113 -0.65162,-0.24567 -1.24332,-0.62896 -1.85111,-0.96174 -0.85115,-0.47205 -1.72225,-0.91596 -2.50809,-1.49488 -0.82059,-0.61832 -1.6417,-1.25114 -2.33681,-2.01194 -0.47778,-0.57852 -0.89471,-1.19344 -1.2062,-1.87844 -0.42444,-0.77864 -0.82151,-1.57505 -1.09281,-2.42206 -0.26231,-0.90236 -0.42868,-1.82415 -0.55083,-2.75576 l 0.002,-8.2e-4 c -0.6145,-4.68464 3.12521,-5.92643 4.89555,-2.94393 0.229,-0.25162 0.47932,-0.48371 0.76151,-0.68351 0.41704,-0.29648 0.82775,-0.59892 1.22068,-0.92716 0.31112,-0.22926 0.61667,-0.45415 0.83549,-0.78162 0.71916,-0.98625 1.47883,-1.943 2.42124,-2.73003 1.14684,-0.95717 2.37053,-1.8403 3.8727,-2.1229 0.47085,-0.0713 0.94242,-0.11415 1.41446,-0.11982 z m -21.38105,15.68298 c 0.65311,-0.0109 1.44668,0.30653 2.24433,1.0896 0.43494,0.42697 0.84683,0.8774 1.31556,1.26812 0.53939,0.33232 1.01289,0.75352 1.51418,1.13704 0.36084,0.24324 0.7177,0.49176 1.07673,0.73739 0.43981,0.27709 0.83919,0.61077 1.23193,0.94968 0.40012,0.33592 0.73117,0.7419 1.1097,1.10005 0.37791,0.39917 0.7657,0.7876 1.14509,1.18529 0.42753,0.4188 0.79676,0.88914 1.17805,1.34853 0.31649,0.36491 0.55188,0.78276 0.77277,1.20941 1.73109,3.34363 -1.72283,5.10392 -3.38861,1.72727 -0.0907,-0.18387 -0.17385,-0.36372 -0.31763,-0.51544 -0.32158,-0.39117 -0.63292,-0.79119 -0.99713,-1.14509 -0.33644,-0.35315 -0.68366,-0.69522 -1.01401,-1.05421 -0.33393,-0.31885 -0.63694,-0.66707 -0.97621,-0.97944 -0.28892,-0.25079 -0.5822,-0.49931 -0.90948,-0.69959 -0.4079,-0.29029 -0.82962,-0.56095 -1.23595,-0.85399 -0.54493,-0.42339 -1.07457,-0.86298 -1.65007,-1.2464 -0.54214,-0.46473 -1.04284,-0.97128 -1.54394,-1.4796 -1.85849,-1.88552 -1.10215,-3.75279 0.44469,-3.77862 z" />
    </clipPath>
  </defs>
  <g
     inkscape:label="Layer 1"
     inkscape:groupmode="layer"
     id="layer1">
    <g
       clip-path="url(#clip0)"
       transform="matrix(0.64263648,0,0,0.64263648,-72.230003,-60.055696)"
       id="g108">
      <g
         clip-path="url(#clipPath3422)"
         id="g90">
        <g
           clip-path="url(#clip2)"
           id="g88">
          <g
             clip-path="url(#clip3)"
             id="g86">
            <path
               d="m 433.986,210.505 c 2.575,-2.75 3.9,-6.442 3.66,-10.203 v -0.038 c -0.828,-6.869 -6.759,-11.973 -13.676,-11.765 h -3.374 c 6.644,-14.944 3.299,-32.442 -8.387,-43.882 -11.729,-11.586 -29.354,-14.814 -44.427,-8.136 v -3.397 c 0.148,-6.925 -5.027,-12.813 -11.914,-13.553 -3.887,-0.274 -7.714,1.067 -10.58,3.705 -2.635,2.443 -4.127,5.878 -4.114,9.471 v 0.316 c -15.839,-12.165 -38.236,-10.735 -52.399,3.348 -14.24,13.816 -15.741,36.158 -3.477,51.754 -6.905,-0.166 -12.799,4.958 -13.595,11.819 -0.269,3.817 1.05,7.576 3.645,10.389 2.491,2.681 5.993,4.195 9.653,4.175 h 3.431 c -2.59,5.863 -3.766,12.253 -3.431,18.654 0.15,2.999 -1.121,5.894 -3.431,7.812 l -160.629,159.37 c -4.401,4.178 -4.582,11.132 -0.405,15.534 0.121,0.127 0.245,0.251 0.371,0.372 l 15.978,16.15 c 4.298,4.414 11.361,4.509 15.775,0.211 0.071,-0.069 0.142,-0.14 0.211,-0.211 l 7.941,-7.869 10.611,10.477 c 4.288,4.414 11.344,4.516 15.758,0.227 0.077,-0.075 0.153,-0.15 0.228,-0.227 l 10.633,-10.496 c 4.396,-4.186 4.567,-11.143 0.381,-15.54 -0.124,-0.13 -0.251,-0.257 -0.381,-0.381 l -10.542,-10.412 7.911,-7.827 18.956,18.719 c 4.299,4.415 11.364,4.509 15.78,0.21 0.071,-0.069 0.14,-0.139 0.209,-0.21 L 246.3,393.329 c 4.397,-4.188 4.567,-11.148 0.378,-15.545 -0.112,-0.118 -0.226,-0.233 -0.343,-0.345 l -18.682,-18.922 86.235,-85.148 c 2.353,-2.223 5.479,-3.442 8.716,-3.397 h 2.287 c 5.611,0.004 11.162,-1.146 16.31,-3.378 v 3.313 c -0.149,6.926 5.027,12.813 11.914,13.554 3.886,0.274 7.714,-1.067 10.58,-3.706 2.635,-2.443 4.127,-5.877 4.113,-9.47 v -0.317 c 15.84,12.166 38.237,10.735 52.399,-3.347 14.241,-13.816 15.742,-36.158 3.477,-51.755 h 0.298 c 3.793,-0.014 7.412,-1.592 10.004,-4.361 z m -21.602,3.732 c 0.88,0.646 1.701,1.366 2.455,2.154 12.374,11.973 12.699,31.709 0.727,44.082 -0.238,0.246 -0.481,0.488 -0.727,0.726 -12.587,12.536 -32.941,12.536 -45.528,0 -0.805,-0.724 -1.53,-1.53 -2.166,-2.405 -1.178,-1.746 -3.547,-2.206 -5.293,-1.029 -1.05,0.709 -1.68,1.893 -1.68,3.16 v 9.375 c 0.011,1.483 -0.607,2.902 -1.7,3.904 -1.313,1.192 -3.058,1.794 -4.827,1.666 -2.896,-0.451 -4.983,-3.02 -4.831,-5.948 v -9.76 c 0.002,-2.105 -1.703,-3.814 -3.809,-3.816 -0.765,0 -1.513,0.23 -2.146,0.66 -5.332,3.521 -11.59,5.378 -17.979,5.337 h -2.288 c -5.238,-0.037 -10.283,1.973 -14.06,5.601 l -88.946,87.828 c -1.498,1.48 -1.513,3.893 -0.034,5.391 l 21.399,21.667 c 1.401,1.236 1.534,3.373 0.298,4.773 -0.093,0.105 -0.193,0.204 -0.298,0.297 l -15.947,15.746 c -1.352,1.455 -3.627,1.539 -5.081,0.188 -0.065,-0.06 -0.128,-0.123 -0.188,-0.188 l -21.644,-21.369 c -1.485,-1.468 -3.875,-1.468 -5.36,0 l -13.344,13.195 c -1.497,1.481 -1.511,3.894 -0.03,5.392 0.01,0.009 0.02,0.019 0.03,0.029 l 13.29,13.119 c 1.401,1.236 1.534,3.373 0.298,4.773 -0.093,0.106 -0.192,0.205 -0.298,0.298 l -10.614,10.511 c -1.353,1.456 -3.63,1.539 -5.086,0.186 -0.064,-0.06 -0.126,-0.122 -0.186,-0.186 l -13.287,-13.119 c -1.484,-1.466 -3.872,-1.466 -5.356,0 l -10.634,10.496 c -1.347,1.455 -3.619,1.543 -5.075,0.195 -0.057,-0.053 -0.113,-0.108 -0.167,-0.165 l -15.974,-16.149 c -1.401,-1.226 -1.544,-3.355 -0.319,-4.756 0.099,-0.113 0.206,-0.22 0.319,-0.319 L 286.747,246.552 c 4.048,-3.462 6.224,-8.632 5.871,-13.946 -0.361,-7.011 1.548,-13.952 5.444,-19.791 1.18,-1.745 0.721,-4.114 -1.023,-5.294 -0.63,-0.426 -1.373,-0.653 -2.133,-0.654 h -9.89 c -1.545,0.013 -3.025,-0.623 -4.079,-1.753 -1.152,-1.257 -1.735,-2.932 -1.613,-4.632 0.524,-2.893 3.137,-4.93 6.07,-4.732 h 9.111 c 2.106,0 3.813,-1.708 3.812,-3.813 0,-1.282 -0.645,-2.477 -1.715,-3.183 -0.878,-0.646 -1.7,-1.366 -2.455,-2.154 -12.372,-11.97 -12.698,-31.704 -0.728,-44.076 0.239,-0.247 0.481,-0.49 0.728,-0.728 12.586,-12.53 32.932,-12.53 45.517,0 0.809,0.727 1.538,1.537 2.177,2.417 1.178,1.745 3.548,2.206 5.293,1.028 1.051,-0.708 1.68,-1.892 1.68,-3.159 v -9.375 c -0.015,-1.489 0.603,-2.914 1.701,-3.919 1.318,-1.184 3.059,-1.785 4.827,-1.667 2.896,0.452 4.982,3.02 4.83,5.948 v 9.745 c -0.001,2.105 1.706,3.813 3.811,3.813 0.73,10e-4 1.446,-0.209 2.06,-0.603 12.855,-8.437 29.853,-6.77 40.824,4.003 11.055,10.552 12.788,27.578 4.087,40.142 -1.189,1.737 -0.745,4.11 0.992,5.3 0.634,0.434 1.385,0.666 2.154,0.666 h 9.87 c 2.925,-0.198 5.535,1.826 6.07,4.709 0.105,1.648 -0.484,3.266 -1.624,4.46 -1.145,1.241 -2.757,1.947 -4.446,1.945 h -9.489 c -2.106,0 -3.812,1.708 -3.811,3.813 0,1.282 0.644,2.477 1.714,3.183 z"
               fill="#0262b3"
               id="path76"
               clip-path="url(#clipPath3244)" />
            <path
               d="m 398.934,187.153 c 7.967,-8.344 7.661,-21.566 -0.683,-29.533 -8.119,-7.752 -20.914,-7.701 -28.971,0.116 -3.95,3.866 -6.143,9.182 -6.07,14.708 -0.187,5.628 2.089,11.058 6.234,14.869 8.298,7.821 21.273,7.754 29.49,-0.152 z m -28.099,-14.709 c -0.092,-3.492 1.292,-6.861 3.813,-9.279 v 0 c 5.31,-5.033 13.63,-5.033 18.941,0 5.128,4.864 5.343,12.965 0.479,18.094 -0.104,0.108 -0.209,0.215 -0.316,0.32 -5.355,5.236 -13.912,5.236 -19.268,0 -2.452,-2.393 -3.778,-5.711 -3.649,-9.135 z"
               fill="#0262b3"
               id="path78" />
            <path
               d="m 331.734,179.28 c 8.123,-7.811 8.375,-20.728 0.564,-28.85 -0.237,-0.246 -0.479,-0.486 -0.727,-0.719 -4.008,-3.677 -9.229,-5.749 -14.667,-5.818 -5.64,-0.192 -11.092,2.04 -14.979,6.13 -7.89,8.094 -7.89,21.003 0,29.097 0.099,0.112 0.207,0.218 0.32,0.317 4.005,3.675 9.223,5.746 14.659,5.817 5.527,-0.012 10.838,-2.151 14.83,-5.974 z m -28.101,-14.708 c 0.109,-3.529 1.52,-6.893 3.961,-9.444 2.463,-2.453 5.841,-3.762 9.314,-3.61 3.507,0.084 6.868,1.422 9.474,3.77 5.127,4.86 5.344,12.956 0.484,18.083 -0.157,0.166 -0.318,0.327 -0.484,0.484 -2.568,2.41 -5.953,3.759 -9.474,3.774 -3.505,-0.09 -6.862,-1.431 -9.463,-3.782 -2.356,-2.525 -3.711,-5.823 -3.812,-9.275 z"
               fill="#0262b3"
               id="path80" />
            <path
               d="m 310.053,215.842 c -8.122,7.812 -8.374,20.729 -0.563,28.851 0.184,0.191 0.372,0.379 0.563,0.563 8.159,8.188 21.412,8.212 29.6,0.053 0.018,-0.018 0.036,-0.036 0.053,-0.053 3.922,-3.884 6.111,-9.186 6.07,-14.705 0.188,-5.628 -2.089,-11.058 -6.233,-14.869 -8.336,-7.727 -21.239,-7.657 -29.49,0.16 z m 24.297,23.988 c -5.21,5.231 -13.673,5.248 -18.903,0.038 -0.013,-0.013 -0.025,-0.025 -0.038,-0.038 -5.128,-4.864 -5.343,-12.964 -0.479,-18.093 0.103,-0.109 0.209,-0.216 0.315,-0.321 5.358,-5.232 13.911,-5.232 19.269,0 2.452,2.398 3.773,5.723 3.637,9.15 0.05,3.477 -1.323,6.824 -3.801,9.264 z"
               fill="#0262b3"
               id="path82" />
            <path
               d="m 377.096,224.249 c -3.724,3.938 -5.834,9.129 -5.914,14.548 -0.187,5.628 2.089,11.058 6.234,14.869 4.005,3.677 9.226,5.75 14.663,5.822 5.641,0.192 11.096,-2.041 14.983,-6.135 7.948,-8.156 7.88,-21.18 -0.153,-29.253 -8.185,-8.192 -21.462,-8.198 -29.654,-0.012 -0.053,0.053 -0.106,0.107 -0.159,0.161 z m 24.285,23.992 c -2.463,2.454 -5.843,3.764 -9.317,3.61 -3.582,-0.098 -7.006,-1.493 -9.635,-3.927 -2.447,-2.391 -3.769,-5.707 -3.637,-9.127 0.097,-3.455 1.453,-6.757 3.813,-9.283 2.53,-2.525 5.956,-3.948 9.531,-3.958 3.465,-0.005 6.792,1.358 9.257,3.794 5.216,5.134 5.283,13.524 0.15,18.741 -0.05,0.05 -0.1,0.1 -0.15,0.15 z"
               fill="#0262b3"
               id="path84" />
          </g>
        </g>
      </g>
      <g
         clip-path="url(#clip4)"
         id="g100">
        <path
           d="m 118.688,147.784 c 0.168,-11.863 6.449,-22.797 16.611,-28.918 18.296,-11.42 28.374,-32.3586 25.885,-53.7813 C 157.586,34.3407 129.747,12.3345 99.0025,15.9325 70.8342,19.229 49.5674,43.0477 49.4707,71.4081 h 26.375 c -6e-4,-16.3813 13.2785,-29.6615 29.6593,-29.6622 16.382,-6e-4 29.662,13.2785 29.662,29.6598 0.001,10.2137 -5.254,19.7092 -13.908,25.1334 -17.86,10.9279 -28.8069,30.3069 -28.9465,51.2449"
           stroke="#0161b2"
           stroke-width="8"
           fill="none"
           transform="matrix(0.71035,-0.703849,0.736206,0.743006,47.9998,202.171)"
           id="path92"
           clip-path="url(#clipPath3254)"
           sodipodi:nodetypes="cccscccccc" />
      </g>
    </g>
    <rect
       style="opacity:1;fill:none;fill-opacity:1;fill-rule:evenodd;stroke:#0262b3;stroke-width:5.19741587;stroke-linejoin:round;stroke-dasharray:none;stroke-opacity:1"
       id="rect2158"
       width="168.31055"
       height="16.740767"
       x="120.33294"
       y="0.94247019"
       transform="matrix(0.70845333,0.72742512,-0.73211328,0.70391667,-1.2930327,-1.0288687)"
       clip-path="url(#clipPath3264)" />
  </g>
</svg>
