<?xml version="1.0" encoding="UTF-8" standalone="no"?>
<!-- Created with Inkscape (http://www.inkscape.org/) -->

<svg
   width="210mm"
   height="297mm"
   viewBox="0 0 210 297"
   version="1.1"
   id="svg5"
   sodipodi:docname="logo.svg"
   inkscape:version="1.1 (c68e22c387, 2021-05-23)"
   xmlns:inkscape="http://www.inkscape.org/namespaces/inkscape"
   xmlns:sodipodi="http://sodipodi.sourceforge.net/DTD/sodipodi-0.dtd"
   xmlns="http://www.w3.org/2000/svg"
   xmlns:svg="http://www.w3.org/2000/svg">
  <sodipodi:namedview
     id="namedview7"
     pagecolor="#ffffff"
     bordercolor="#666666"
     borderopacity="1.0"
     inkscape:pageshadow="2"
     inkscape:pageopacity="0.0"
     inkscape:pagecheckerboard="0"
     inkscape:document-units="mm"
     showgrid="false"
     inkscape:zoom="0.67081229"
     inkscape:cx="397.27954"
     inkscape:cy="640.26853"
     inkscape:window-width="1920"
     inkscape:window-height="1009"
     inkscape:window-x="2992"
     inkscape:window-y="-8"
     inkscape:window-maximized="1"
     inkscape:current-layer="layer1" />
  <defs
     id="defs2">
    <clipPath
       id="clip0">
      <rect
         x="48"
         y="53"
         width="414"
         height="409"
         id="rect53" />
    </clipPath>
    <clipPath
       id="clip1">
      <rect
         x="96"
         y="96"
         width="366"
         height="366"
         id="rect56" />
    </clipPath>
    <clipPath
       id="clip2">
      <rect
         x="96"
         y="96"
         width="366"
         height="366"
         id="rect59" />
    </clipPath>
    <clipPath
       id="clip3">
      <rect
         x="96"
         y="96"
         width="366"
         height="366"
         id="rect62" />
    </clipPath>
    <clipPath
       id="clip4">
      <path
         d="M47.9998 202.171 197.884 53.6592 353.223 210.433 203.339 358.946Z"
         fill-rule="evenodd"
         clip-rule="evenodd"
         id="path65" />
    </clipPath>
    <clipPath
       id="clip5">
      <path
         d="M47.9998 202.171 197.884 53.6592 353.223 210.433 203.339 358.946Z"
         fill-rule="evenodd"
         clip-rule="evenodd"
         id="path68" />
    </clipPath>
    <clipPath
       id="clip6">
      <path
         d="M47.9998 202.171 197.884 53.6592 353.223 210.433 203.339 358.946Z"
         fill-rule="evenodd"
         clip-rule="evenodd"
         id="path71" />
    </clipPath>
  </defs>
  <g
     inkscape:label="Layer 1"
     inkscape:groupmode="layer"
     id="layer1">
    <g
       clip-path="url(#clip0)"
       transform="matrix(0.64263648,0,0,0.64263648,-72.230003,-60.055696)"
       id="g108">
      <g
         clip-path="url(#clip1)"
         id="g90">
        <g
           clip-path="url(#clip2)"
           id="g88">
          <g
             clip-path="url(#clip3)"
             id="g86">
            <path
               d="m 433.986,210.505 c 2.575,-2.75 3.9,-6.442 3.66,-10.203 v -0.038 c -0.828,-6.869 -6.759,-11.973 -13.676,-11.765 h -3.374 c 6.644,-14.944 3.299,-32.442 -8.387,-43.882 -11.729,-11.586 -29.354,-14.814 -44.427,-8.136 v -3.397 c 0.148,-6.925 -5.027,-12.813 -11.914,-13.553 -3.887,-0.274 -7.714,1.067 -10.58,3.705 -2.635,2.443 -4.127,5.878 -4.114,9.471 v 0.316 c -15.839,-12.165 -38.236,-10.735 -52.399,3.348 -14.24,13.816 -15.741,36.158 -3.477,51.754 -6.905,-0.166 -12.799,4.958 -13.595,11.819 -0.269,3.817 1.05,7.576 3.645,10.389 2.491,2.681 5.993,4.195 9.653,4.175 h 3.431 c -2.59,5.863 -3.766,12.253 -3.431,18.654 0.15,2.999 -1.121,5.894 -3.431,7.812 l -160.629,159.37 c -4.401,4.178 -4.582,11.132 -0.405,15.534 0.121,0.127 0.245,0.251 0.371,0.372 l 15.978,16.15 c 4.298,4.414 11.361,4.509 15.775,0.211 0.071,-0.069 0.142,-0.14 0.211,-0.211 l 7.941,-7.869 10.611,10.477 c 4.288,4.414 11.344,4.516 15.758,0.227 0.077,-0.075 0.153,-0.15 0.228,-0.227 l 10.633,-10.496 c 4.396,-4.186 4.567,-11.143 0.381,-15.54 -0.124,-0.13 -0.251,-0.257 -0.381,-0.381 l -10.542,-10.412 7.911,-7.827 18.956,18.719 c 4.299,4.415 11.364,4.509 15.78,0.21 0.071,-0.069 0.14,-0.139 0.209,-0.21 L 246.3,393.329 c 4.397,-4.188 4.567,-11.148 0.378,-15.545 -0.112,-0.118 -0.226,-0.233 -0.343,-0.345 l -18.682,-18.922 86.235,-85.148 c 2.353,-2.223 5.479,-3.442 8.716,-3.397 h 2.287 c 5.611,0.004 11.162,-1.146 16.31,-3.378 v 3.313 c -0.149,6.926 5.027,12.813 11.914,13.554 3.886,0.274 7.714,-1.067 10.58,-3.706 2.635,-2.443 4.127,-5.877 4.113,-9.47 v -0.317 c 15.84,12.166 38.237,10.735 52.399,-3.347 14.241,-13.816 15.742,-36.158 3.477,-51.755 h 0.298 c 3.793,-0.014 7.412,-1.592 10.004,-4.361 z m -21.602,3.732 c 0.88,0.646 1.701,1.366 2.455,2.154 12.374,11.973 12.699,31.709 0.727,44.082 -0.238,0.246 -0.481,0.488 -0.727,0.726 -12.587,12.536 -32.941,12.536 -45.528,0 -0.805,-0.724 -1.53,-1.53 -2.166,-2.405 -1.178,-1.746 -3.547,-2.206 -5.293,-1.029 -1.05,0.709 -1.68,1.893 -1.68,3.16 v 9.375 c 0.011,1.483 -0.607,2.902 -1.7,3.904 -1.313,1.192 -3.058,1.794 -4.827,1.666 -2.896,-0.451 -4.983,-3.02 -4.831,-5.948 v -9.76 c 0.002,-2.105 -1.703,-3.814 -3.809,-3.816 -0.765,0 -1.513,0.23 -2.146,0.66 -5.332,3.521 -11.59,5.378 -17.979,5.337 h -2.288 c -5.238,-0.037 -10.283,1.973 -14.06,5.601 l -88.946,87.828 c -1.498,1.48 -1.513,3.893 -0.034,5.391 l 21.399,21.667 c 1.401,1.236 1.534,3.373 0.298,4.773 -0.093,0.105 -0.193,0.204 -0.298,0.297 l -15.947,15.746 c -1.352,1.455 -3.627,1.539 -5.081,0.188 -0.065,-0.06 -0.128,-0.123 -0.188,-0.188 l -21.644,-21.369 c -1.485,-1.468 -3.875,-1.468 -5.36,0 l -13.344,13.195 c -1.497,1.481 -1.511,3.894 -0.03,5.392 0.01,0.009 0.02,0.019 0.03,0.029 l 13.29,13.119 c 1.401,1.236 1.534,3.373 0.298,4.773 -0.093,0.106 -0.192,0.205 -0.298,0.298 l -10.614,10.511 c -1.353,1.456 -3.63,1.539 -5.086,0.186 -0.064,-0.06 -0.126,-0.122 -0.186,-0.186 l -13.287,-13.119 c -1.484,-1.466 -3.872,-1.466 -5.356,0 l -10.634,10.496 c -1.347,1.455 -3.619,1.543 -5.075,0.195 -0.057,-0.053 -0.113,-0.108 -0.167,-0.165 l -15.974,-16.149 c -1.401,-1.226 -1.544,-3.355 -0.319,-4.756 0.099,-0.113 0.206,-0.22 0.319,-0.319 L 286.747,246.552 c 4.048,-3.462 6.224,-8.632 5.871,-13.946 -0.361,-7.011 1.548,-13.952 5.444,-19.791 1.18,-1.745 0.721,-4.114 -1.023,-5.294 -0.63,-0.426 -1.373,-0.653 -2.133,-0.654 h -9.89 c -1.545,0.013 -3.025,-0.623 -4.079,-1.753 -1.152,-1.257 -1.735,-2.932 -1.613,-4.632 0.524,-2.893 3.137,-4.93 6.07,-4.732 h 9.111 c 2.106,0 3.813,-1.708 3.812,-3.813 0,-1.282 -0.645,-2.477 -1.715,-3.183 -0.878,-0.646 -1.7,-1.366 -2.455,-2.154 -12.372,-11.97 -12.698,-31.704 -0.728,-44.076 0.239,-0.247 0.481,-0.49 0.728,-0.728 12.586,-12.53 32.932,-12.53 45.517,0 0.809,0.727 1.538,1.537 2.177,2.417 1.178,1.745 3.548,2.206 5.293,1.028 1.051,-0.708 1.68,-1.892 1.68,-3.159 v -9.375 c -0.015,-1.489 0.603,-2.914 1.701,-3.919 1.318,-1.184 3.059,-1.785 4.827,-1.667 2.896,0.452 4.982,3.02 4.83,5.948 v 9.745 c -0.001,2.105 1.706,3.813 3.811,3.813 0.73,10e-4 1.446,-0.209 2.06,-0.603 12.855,-8.437 29.853,-6.77 40.824,4.003 11.055,10.552 12.788,27.578 4.087,40.142 -1.189,1.737 -0.745,4.11 0.992,5.3 0.634,0.434 1.385,0.666 2.154,0.666 h 9.87 c 2.925,-0.198 5.535,1.826 6.07,4.709 0.105,1.648 -0.484,3.266 -1.624,4.46 -1.145,1.241 -2.757,1.947 -4.446,1.945 h -9.489 c -2.106,0 -3.812,1.708 -3.811,3.813 0,1.282 0.644,2.477 1.714,3.183 z"
               fill="#0262b3"
               id="path76" />
            <path
               d="m 398.934,187.153 c 7.967,-8.344 7.661,-21.566 -0.683,-29.533 -8.119,-7.752 -20.914,-7.701 -28.971,0.116 -3.95,3.866 -6.143,9.182 -6.07,14.708 -0.187,5.628 2.089,11.058 6.234,14.869 8.298,7.821 21.273,7.754 29.49,-0.152 z m -28.099,-14.709 c -0.092,-3.492 1.292,-6.861 3.813,-9.279 v 0 c 5.31,-5.033 13.63,-5.033 18.941,0 5.128,4.864 5.343,12.965 0.479,18.094 -0.104,0.108 -0.209,0.215 -0.316,0.32 -5.355,5.236 -13.912,5.236 -19.268,0 -2.452,-2.393 -3.778,-5.711 -3.649,-9.135 z"
               fill="#0262b3"
               id="path78" />
            <path
               d="m 331.734,179.28 c 8.123,-7.811 8.375,-20.728 0.564,-28.85 -0.237,-0.246 -0.479,-0.486 -0.727,-0.719 -4.008,-3.677 -9.229,-5.749 -14.667,-5.818 -5.64,-0.192 -11.092,2.04 -14.979,6.13 -7.89,8.094 -7.89,21.003 0,29.097 0.099,0.112 0.207,0.218 0.32,0.317 4.005,3.675 9.223,5.746 14.659,5.817 5.527,-0.012 10.838,-2.151 14.83,-5.974 z m -28.101,-14.708 c 0.109,-3.529 1.52,-6.893 3.961,-9.444 2.463,-2.453 5.841,-3.762 9.314,-3.61 3.507,0.084 6.868,1.422 9.474,3.77 5.127,4.86 5.344,12.956 0.484,18.083 -0.157,0.166 -0.318,0.327 -0.484,0.484 -2.568,2.41 -5.953,3.759 -9.474,3.774 -3.505,-0.09 -6.862,-1.431 -9.463,-3.782 -2.356,-2.525 -3.711,-5.823 -3.812,-9.275 z"
               fill="#0262b3"
               id="path80" />
            <path
               d="m 310.053,215.842 c -8.122,7.812 -8.374,20.729 -0.563,28.851 0.184,0.191 0.372,0.379 0.563,0.563 8.159,8.188 21.412,8.212 29.6,0.053 0.018,-0.018 0.036,-0.036 0.053,-0.053 3.922,-3.884 6.111,-9.186 6.07,-14.705 0.188,-5.628 -2.089,-11.058 -6.233,-14.869 -8.336,-7.727 -21.239,-7.657 -29.49,0.16 z m 24.297,23.988 c -5.21,5.231 -13.673,5.248 -18.903,0.038 -0.013,-0.013 -0.025,-0.025 -0.038,-0.038 -5.128,-4.864 -5.343,-12.964 -0.479,-18.093 0.103,-0.109 0.209,-0.216 0.315,-0.321 5.358,-5.232 13.911,-5.232 19.269,0 2.452,2.398 3.773,5.723 3.637,9.15 0.05,3.477 -1.323,6.824 -3.801,9.264 z"
               fill="#0262b3"
               id="path82" />
            <path
               d="m 377.096,224.249 c -3.724,3.938 -5.834,9.129 -5.914,14.548 -0.187,5.628 2.089,11.058 6.234,14.869 4.005,3.677 9.226,5.75 14.663,5.822 5.641,0.192 11.096,-2.041 14.983,-6.135 7.948,-8.156 7.88,-21.18 -0.153,-29.253 -8.185,-8.192 -21.462,-8.198 -29.654,-0.012 -0.053,0.053 -0.106,0.107 -0.159,0.161 z m 24.285,23.992 c -2.463,2.454 -5.843,3.764 -9.317,3.61 -3.582,-0.098 -7.006,-1.493 -9.635,-3.927 -2.447,-2.391 -3.769,-5.707 -3.637,-9.127 0.097,-3.455 1.453,-6.757 3.813,-9.283 2.53,-2.525 5.956,-3.948 9.531,-3.958 3.465,-0.005 6.792,1.358 9.257,3.794 5.216,5.134 5.283,13.524 0.15,18.741 -0.05,0.05 -0.1,0.1 -0.15,0.15 z"
               fill="#0262b3"
               id="path84" />
          </g>
        </g>
      </g>
      <g
         clip-path="url(#clip4)"
         id="g100">
        <g
           clip-path="url(#clip5)"
           id="g98">
          <g
             clip-path="url(#clip6)"
             id="g96">
            <path
               d="M 161.184,65.0847 C 157.586,34.3407 129.747,12.3345 99.0025,15.9325 70.8342,19.229 49.5674,43.0477 49.4707,71.4081 h 26.375 c -6e-4,-16.3813 13.2785,-29.6615 29.6593,-29.6622 16.382,-6e-4 29.662,13.2785 29.662,29.6598 0.001,10.2137 -5.254,19.7092 -13.908,25.1334 -17.86,10.9279 -28.8069,30.3069 -28.9465,51.2449 h 26.3755 c 0.168,-11.863 6.449,-22.797 16.611,-28.918 18.296,-11.42 28.374,-32.3586 25.885,-53.7813 z"
               stroke="#0161b2"
               stroke-width="8"
               fill="none"
               transform="matrix(0.71035,-0.703849,0.736206,0.743006,47.9998,202.171)"
               id="path92" />
            <path
               d="m 117.323,168.083 v 0 c -6.286,-6.298 -16.486,-6.308 -22.7844,-0.023 -0.008,0.008 -0.0159,0.016 -0.0238,0.023 -1.4739,1.48 -2.6474,3.231 -3.4551,5.157 -0.8409,1.989 -1.2693,4.128 -1.2594,6.288 -0.0121,2.151 0.418,4.282 1.2638,6.26 1.6436,3.866 4.7319,6.938 8.607,8.561 1.9889,0.84 4.1269,1.271 6.2859,1.266 2.151,0.01 4.281,-0.42 6.26,-1.264 3.848,-1.643 6.912,-4.709 8.554,-8.557 0.845,-1.978 1.276,-4.108 1.266,-6.259 0.008,-2.16 -0.421,-4.299 -1.261,-6.289 -0.808,-1.927 -1.98,-3.68 -3.453,-5.163 z"
               stroke="#0161b2"
               stroke-width="8"
               fill="none"
               transform="matrix(0.71035,-0.703849,0.736206,0.743006,47.9998,202.171)"
               id="path94" />
          </g>
        </g>
      </g>
      <path
         d="m 227.16,264.413 c -2.804,-2.831 -2.783,-7.399 0.047,-10.204 l 20.501,-20.313 c 2.831,-2.805 7.399,-2.784 10.204,0.047 l 57.322,57.852 c 2.805,2.83 2.784,7.399 -0.047,10.203 l -20.501,20.313 c -2.83,2.805 -7.399,2.784 -10.204,-0.046 z"
         fill="#ffffff"
         fill-rule="evenodd"
         id="path102" />
      <path
         d="m 222.852,248.853 c -1.796,-1.812 -1.782,-4.737 0.03,-6.532 l 13.124,-13.004 c 1.812,-1.796 4.736,-1.782 6.532,0.03 l 183.483,185.177 c 1.795,1.812 1.782,4.737 -0.03,6.532 l -13.124,13.004 c -1.813,1.796 -4.737,1.782 -6.532,-0.03 z"
         stroke="#0262b3"
         stroke-width="6.66667"
         stroke-miterlimit="8"
         fill="#ffffff"
         fill-rule="evenodd"
         id="path104" />
      <path
         d="m 220.307,239.677 13.9,-13.772 6.459,6.518 -13.9,13.773 z"
         fill="#ffffff"
         fill-rule="evenodd"
         id="path106" />
    </g>
  </g>
</svg>
