<?xml version="1.0" encoding="UTF-8" standalone="no"?>
<svg
   width="16"
   height="16"
   viewBox="0 0 16 16"
   fill="none"
   version="1.1"
   id="svg4"
   sodipodi:docname="key-vault.svg"
   inkscape:version="1.1 (c68e22c387, 2021-05-23)"
   xmlns:inkscape="http://www.inkscape.org/namespaces/inkscape"
   xmlns:sodipodi="http://sodipodi.sourceforge.net/DTD/sodipodi-0.dtd"
   xmlns="http://www.w3.org/2000/svg"
   xmlns:svg="http://www.w3.org/2000/svg">
  <defs
     id="defs8">
    <clipPath
       id="clip0">
      <rect
         x="35"
         y="-17"
         width="98"
         height="210"
         id="rect1098" />
    </clipPath>
  </defs>
  <sodipodi:namedview
     id="namedview6"
     pagecolor="#ffffff"
     bordercolor="#666666"
     borderopacity="1.0"
     inkscape:pageshadow="2"
     inkscape:pageopacity="0.0"
     inkscape:pagecheckerboard="0"
     showgrid="false"
     inkscape:zoom="27.06"
     inkscape:cx="7.9637842"
     inkscape:cy="8.0192166"
     inkscape:window-width="1500"
     inkscape:window-height="930"
     inkscape:window-x="-6"
     inkscape:window-y="-6"
     inkscape:window-maximized="1"
     inkscape:current-layer="svg4" />
  <g
     id="Layer_1"
     transform="matrix(0.31455257,0,0,0.31455257,-16.245712,-10.52222)">
    <g
       id="Azure" />
    <g
       id="BizTalk_Services"
       transform="translate(37.3575,-2500.2)" />
    <g
       id="Key_Vault">
      <g
         id="g10">
        <path
           fill="#0078d7"
           d="m 99.2,61.4 c 0,-7.3 -3.5,-13.7 -8.8,-17.8 0,0.2 0,0.5 0,0.7 0,2.2 -0.6,4.3 -1.5,6.1 2.6,2.9 4.2,6.7 4.2,10.9 0,9 -7.3,16.3 -16.3,16.3 -9,0 -16.3,-7.3 -16.3,-16.3 0,-4.5 1.8,-8.5 4.7,-11.5 -0.8,-1.7 -1.3,-3.6 -1.3,-5.6 0,-0.4 0,-0.9 0.1,-1.3 -5.8,4 -9.6,10.8 -9.6,18.4 0,12.4 10,22.4 22.4,22.4 12.4,0 22.4,-9.9 22.4,-22.3 z"
           id="path4" />
        <g
           id="g8">
          <path
             fill="#0078d7"
             d="m 77.1,33.8 c -5.7,0 -10.3,4.6 -10.3,10.3 0,4.7 3.1,8.6 7.4,9.9 v 10.2 h -4.8 v 5.2 h 4.8 v 3.8 h 5.7 V 54 c 4.3,-1.2 7.4,-5.2 7.4,-9.9 0.1,-5.7 -4.5,-10.3 -10.2,-10.3 z m 0,5.4 c 2.7,0 4.9,2.2 4.9,4.9 0,2.7 -2.2,4.9 -4.9,4.9 -2.7,0 -4.9,-2.2 -4.9,-4.9 0,-2.7 2.2,-4.9 4.9,-4.9 z"
             id="path6" />
        </g>
      </g>
    </g>
  </g>
  <g
     id="paths"
     transform="matrix(0.31455257,0,0,0.31455257,-16.245712,-10.52222)">
    <g
       id="Access_control" />
    <g
       id="Azure_active_directory" />
    <g
       id="API_Management" />
    <g
       id="Azure_automation" />
    <g
       id="Azure_SQL_database" />
    <g
       id="Azure_subscription" />
    <g
       id="Backup_service" />
    <g
       id="Bitbucket_code_source" />
    <g
       id="Azure_cache" />
    <g
       id="Content_delivery_network__x28_CDN_x29_" />
    <g
       id="Cloud_service" />
    <g
       id="CodePlex" />
    <g
       id="Dropbox_code_source" />
    <g
       id="Express_route" />
    <g
       id="Git_repository" />
    <g
       id="GitHub_code" />
    <g
       id="HD_Insight" />
    <g
       id="Health_monitoring" />
    <g
       id="Healthy" />
    <g
       id="BizTalk_hybrid_connection" />
    <g
       id="Hybrid_connection_manager_for_BizTalk_hybrid_connection" />
    <g
       id="Hyper-V_recovery_manager" />
  </g>
</svg>
