<?xml version="1.0" encoding="UTF-8" standalone="no"?>
<svg
   width="16"
   height="16"
   viewBox="0 0 16 16"
   fill="none"
   version="1.1"
   id="svg4"
   sodipodi:docname="secret-supervised.svg"
   inkscape:version="1.1 (c68e22c387, 2021-05-23)"
   xmlns:inkscape="http://www.inkscape.org/namespaces/inkscape"
   xmlns:sodipodi="http://sodipodi.sourceforge.net/DTD/sodipodi-0.dtd"
   xmlns="http://www.w3.org/2000/svg"
   xmlns:svg="http://www.w3.org/2000/svg">
  <defs
     id="defs8">
    <clipPath
       id="clip0">
      <rect
         x="35"
         y="-17"
         width="98"
         height="210"
         id="rect1098" />
    </clipPath>
  </defs>
  <sodipodi:namedview
     id="namedview6"
     pagecolor="#ffffff"
     bordercolor="#666666"
     borderopacity="1.0"
     inkscape:pageshadow="2"
     inkscape:pageopacity="0.0"
     inkscape:pagecheckerboard="0"
     showgrid="false"
     inkscape:zoom="21.982074"
     inkscape:cx="7.9837781"
     inkscape:cy="8.0065239"
     inkscape:window-width="1500"
     inkscape:window-height="930"
     inkscape:window-x="-6"
     inkscape:window-y="-6"
     inkscape:window-maximized="1"
     inkscape:current-layer="svg4" />
  <g
     clip-path="url(#clip0)"
     transform="matrix(0.09613175,0,0,0.07373497,-2.8124924,1.4511122)"
     id="g1113"
     style="fill:#009898;fill-opacity:1">
    <path
       d="m 116.543,0.244843 c -0.064,-1.974583 -0.942,-3.834453 -2.425,-5.139463 l -0.014,-0.01409 c -2.854,-2.24004 -6.945,-1.93296 -9.433,0.70826 l -1.251,1.25086 C 100.343,-10.9531 92.6157,-16.2006 84.0415,-16.1091 75.3975,-16.056 67.6663,-10.7182 64.5536,-2.65376 L 63.2941,-3.9132 C 60.7816,-6.53582 56.68,-6.79978 53.8518,-4.52094 52.3095,-3.18134 51.3877,-1.2655 51.3033,0.775566 51.2323,2.658 51.9522,4.48448 53.2893,5.81174 l 0.1172,0.11724 C 43.0237,7.29137 35.2504,16.1255 35.2203,26.5973 c -0.1574,10.4022 7.5693,19.2419 17.8988,20.4772 -2.6216,2.4985 -2.9073,6.5834 -0.6586,9.4224 1.3156,1.5148 3.1981,2.4196 5.2029,2.5003 1.9179,0.07 3.7774,-0.6666 5.1268,-2.0312 l 1.2722,-1.2722 c 1.2134,3.1343 3.1467,5.9393 5.644,8.1884 1.1677,1.0559 1.7696,2.6007 1.6241,4.1684 L 70.863,186.691 c -0.083,3.18 2.4281,5.826 5.6087,5.909 0.0919,0.002 0.1836,0.002 0.2755,0.001 l 11.9115,0.063 c 3.2302,0.043 5.8837,-2.54 5.9269,-5.77 6e-4,-0.052 6e-4,-0.105 0,-0.157 l 0.0268,-5.862 7.8176,-0.049 c 3.227,0.046 5.881,-2.532 5.927,-5.758 0.001,-0.056 0.001,-0.113 0,-0.169 l 0.051,-7.834 c 0.078,-3.182 -2.438,-5.824 -5.62,-5.902 -0.094,-0.003 -0.188,-0.003 -0.282,0 l -7.7689,0.048 0.031,-5.835 13.9679,-0.088 c 3.231,0.043 5.886,-2.542 5.929,-5.773 0,-0.051 0,-0.103 0,-0.155 l 0.075,-11.748 c 0.077,-3.182 -2.44,-5.826 -5.623,-5.903 -0.086,-0.002 -0.171,-0.002 -0.256,-0.001 l -13.9414,-0.089 0.4035,-63.5403 c 0.0478,-1.6965 0.7554,-3.3075 1.972,-4.4909 l 0.8481,-0.8481 c 2.0818,-2.0789 3.7138,-4.5633 4.7948,-7.2993 l 1.228,1.2283 c 2.513,2.6228 6.614,2.8867 9.442,0.6077 1.543,-1.3393 2.465,-3.2552 2.549,-5.2963 0.071,-1.8828 -0.649,-3.7091 -1.986,-5.0362 l -0.118,-0.1174 C 124.437,45.4644 132.21,36.63 132.24,26.1582 132.397,15.7562 124.671,6.91647 114.341,5.68114 l 0.11,-0.11026 c 1.401,-1.41143 2.158,-3.33839 2.092,-5.326037 z m -6.625,9.392647 c 0.565,-0.08667 1.137,-0.12422 1.709,-0.11161 9.026,-0.14879 16.464,7.04772 16.612,16.07402 0.004,0.1794 0.003,0.3592 0.001,0.5386 -0.02,9.3143 -7.566,16.8605 -16.881,16.8801 -0.566,0.0297 -1.134,-2e-4 -1.694,-0.089 -1.084,-0.2105 -2.133,0.4972 -2.344,1.5809 -0.127,0.6522 0.079,1.3246 0.549,1.7945 l 3.475,3.4757 c 0.554,0.5458 0.851,1.3009 0.817,2.0779 -0.044,0.929 -0.468,1.7989 -1.172,2.4072 -1.241,0.9064 -2.967,0.7276 -3.995,-0.4142 l -3.619,-3.6185 c -0.78,-0.7815 -2.046,-0.7823 -2.827,-0.0023 -0.284,0.2836 -0.476,0.6458 -0.5513,1.0398 -0.6715,3.2824 -2.3029,6.2912 -4.6873,8.645 l -0.8481,0.8481 c -1.9554,1.9281 -3.0809,4.5438 -3.1364,7.2895 L 90.911,133.593 c -0.0069,1.104 0.8821,2.004 1.9859,2.011 l 15.9671,0.099 c 0.977,-0.061 1.819,0.682 1.88,1.659 0.004,0.074 0.004,0.147 0,0.221 l -0.075,11.75 c 0.038,1.04 -0.774,1.915 -1.814,1.954 -0.047,0.001 -0.094,0.001 -0.14,0 l -15.9468,0.102 c -1.095,0.006 -1.9811,0.892 -1.9875,1.987 l -0.0551,9.839 c -0.0063,1.104 0.8838,2.004 1.9879,2.01 0.0072,0 0.0147,0 0.0219,0 l 9.7916,-0.063 c 0.977,-0.061 1.819,0.682 1.88,1.659 0.004,0.073 0.004,0.147 0,0.22 l -0.039,7.833 c 0.039,1.041 -0.775,1.916 -1.816,1.954 -0.046,0.002 -0.092,0.002 -0.138,0.001 l -9.7903,0.062 c -1.0937,0.007 -1.9789,0.892 -1.986,1.986 l -0.051,7.833 c 0.0402,1.04 -0.7699,1.914 -1.8091,1.955 -0.0411,0.001 -0.0821,0.002 -0.123,0 L 76.7444,188.6 c -0.9739,0.066 -1.8159,-0.671 -1.8814,-1.645 -0.0053,-0.078 -0.0052,-0.157 0,-0.236 L 75.318,68.1989 c 0.2174,-2.7844 -0.8926,-5.5078 -2.9939,-7.3473 -2.7331,-2.4652 -4.5985,-5.7462 -5.3188,-9.3559 -0.2096,-1.084 -1.2581,-1.7926 -2.342,-1.583 -0.3915,0.0756 -0.7513,0.2666 -1.0334,0.5484 l -3.6666,3.6666 c -0.5682,0.578 -1.3528,0.8907 -2.1626,0.8623 -0.8929,-0.039 -1.7303,-0.444 -2.3153,-1.1195 -0.8783,-1.2665 -0.6646,-2.9906 0.4962,-4.0045 l 3.3781,-3.3782 c 0.7806,-0.7809 0.7802,-2.0466 -8e-4,-2.827 -0.475,-0.475 -1.1571,-0.6795 -1.8154,-0.5441 -0.5652,0.0862 -1.1372,0.1236 -1.7089,0.1116 -9.0252,0.1492 -16.4622,-7.0463 -16.6111,-16.0712 -0.0032,-0.18 -0.003,-0.3601 -2e-4,-0.5401 0.021,-9.3115 7.5643,-16.85483 16.8759,-16.87584 0.5693,-0.02999 1.1401,-1.7e-4 1.7033,0.08901 1.0838,0.21053 2.1329,-0.4973 2.3437,-1.58089 0.1266,-0.65223 -0.079,-1.32462 -0.5485,-1.79445 L 56.122,2.97908 C 55.5644,2.43284 55.2653,1.67542 55.2993,0.895584 c 0.0497,-0.9276427 0.4723,-1.795776 1.1719,-2.407184 1.2411,-0.90658 2.9669,-0.72762 3.9959,0.41414 L 64.08,2.51541 c 0.7803,0.78087 2.0459,0.7813 2.8268,7.2e-4 0.2709,-0.27054 0.4584,-0.61334 0.5401,-0.9873 1.6381,-7.89422 8.5581,-13.57843 16.62,-13.65173 8.0105,-0.1865 14.9659,5.48343 16.3981,13.36722 0.203,1.08509 1.247,1.80036 2.332,1.59719 0.396,-0.0742 0.761,-0.26638 1.046,-0.55131 l 3.659,-3.65953 c 1.011,-1.15798 2.729,-1.3748 3.996,-0.5046 0.65,0.57221 1.032,1.390188 1.052,2.255934 0.036,0.884456 -0.301,1.743536 -0.927,2.369046 l -3.518,3.51812 c -0.781,0.78087 -0.78,2.04656 0,2.82698 0.475,0.47517 1.158,0.6795 1.816,0.54416 z"
       fill-rule="evenodd"
       id="path1103"
       style="fill:#009898;fill-opacity:1" />
    <path
       d="M 94.89,4.58322 C 94.7504,-1.46416 89.7349,-6.25295 83.6875,-6.11327 77.803,-5.97716 73.0783,-1.21443 72.9894,4.67091 c -0.0311,2.89778 1.1266,5.68189 3.2028,7.70349 2.0167,2.1562 4.8738,3.3254 7.8237,3.2017 5.9762,-0.1768 10.762,-5.0126 10.8769,-10.99006 z M 79.0192,9.5474 C 77.6902,8.28721 76.9541,6.52483 76.9924,4.69359 v 0 c 0.1029,-3.834763 3.1875,-6.91939 7.0223,-7.02226 3.7047,-0.09811 6.7876,2.825616 6.8858,6.53053 0.002,0.07865 0.0025,0.15716 0.002,0.23566 -0.0445,3.92692 -3.217,7.09938 -7.1439,7.14398 -1.7962,0.0219 -3.5179,-0.7168 -4.7394,-2.0341 z"
       fill-rule="evenodd"
       id="path1105"
       style="fill:#009898;fill-opacity:1" />
    <path
       d="m 67.0566,26.5786 c 0.1155,-5.9075 -4.58,-10.79 -10.4875,-10.9051 -0.1788,-0.0034 -0.3576,-0.0024 -0.5361,0.0031 -2.8488,0.1225 -5.5527,1.2904 -7.5948,3.2806 -2.162,2.0202 -3.3561,4.8689 -3.2807,7.8267 0.0756,5.9262 4.8613,10.7119 10.7875,10.7875 0.0786,0.0045 0.1574,0.0041 0.2361,-0.0013 2.8474,-0.1223 5.5501,-1.2893 7.5919,-3.2781 2.0448,-2.0537 3.2206,-4.8158 3.2836,-7.7134 z m -15.8722,4.9659 c -1.2676,-1.349 -1.9916,-3.1192 -2.0324,-4.9699 0.0038,-1.8227 0.7706,-3.5606 2.1145,-4.7918 1.3316,-1.2689 3.0738,-2.0193 4.9107,-2.1146 3.7025,-0.0991 6.7844,2.8219 6.8836,6.5246 0.0031,0.1197 0.0031,0.2393 -1e-4,0.3589 -0.0585,1.8455 -0.8134,3.6006 -2.1133,4.9121 -1.3328,1.266 -3.0745,2.0132 -4.9105,2.1061 C 54.227,33.507 52.5021,32.787 51.1844,31.5445 Z"
       fill-rule="evenodd"
       id="path1107"
       style="fill:#009898;fill-opacity:1" />
    <path
       d="m 72.5733,48.1725 c -0.1152,5.9075 4.5802,10.7898 10.4878,10.9051 0.1392,0.0026 0.2781,0.0026 0.4171,-2e-4 6.0609,0.0109 10.9833,-4.8937 10.9944,-10.9546 0,-0.0133 -2e-4,-0.0263 -2e-4,-0.0396 0.0143,-2.8938 -1.1399,-5.6709 -3.2013,-7.702 -2.0168,-2.156 -4.8739,-3.3252 -7.8236,-3.2016 -5.9554,0.2258 -10.7131,5.0355 -10.8742,10.9929 z M 90.475,48.0579 c 0.0078,3.8706 -3.1237,7.0146 -6.9944,7.0223 -0.0095,0 -0.0184,0 -0.0279,0 -3.7047,0.0981 -6.7875,-2.8256 -6.8857,-6.5305 -0.0021,-0.0787 -0.0025,-0.1572 -0.0019,-0.2358 0.0465,-3.9259 3.2179,-7.0974 7.1438,-7.1439 1.7983,-0.0202 3.5209,0.7227 4.7409,2.0439 1.3075,1.2707 2.0392,3.0204 2.0252,4.844 z"
       fill-rule="evenodd"
       id="path1109"
       style="fill:#009898;fill-opacity:1" />
    <path
       d="m 100.547,26.4326 c 0.079,2.8404 1.222,5.5476 3.201,7.5861 2.017,2.1561 4.874,3.3251 7.824,3.2016 2.848,-0.1217 5.552,-1.2889 7.594,-3.278 2.163,-2.0204 3.358,-4.8704 3.281,-7.8294 -0.077,-5.9705 -4.931,-10.7743 -10.902,-10.7892 -6.072,-0.0023 -10.996,4.9181 -10.999,10.9902 0,0.0395 0,0.0791 10e-4,0.1187 z m 17.899,-0.1089 c -0.004,1.8233 -0.771,3.562 -2.117,4.7931 -1.364,1.2914 -3.15,2.0435 -5.027,2.1159 -1.794,0.0208 -3.514,-0.7185 -4.733,-2.0354 -1.245,-1.3168 -1.966,-3.0437 -2.028,-4.8552 0.002,-1.8743 0.745,-3.6719 2.067,-5.0009 1.283,-1.2868 3.021,-2.0147 4.838,-2.0257 3.838,-0.0306 6.973,3.0551 7.004,6.8926 0,0.0372 0,0.0741 0,0.1113 z"
       fill-rule="evenodd"
       id="path1111"
       style="fill:#009898;fill-opacity:1" />
  </g>
  <path
     style="opacity:0.8;fill:#76e9e9;fill-opacity:1;stroke-width:0.0519431"
     d="m 4.4796934,15.301752 c -0.022754,-0.01745 -0.041373,-2.066555 -0.041373,-4.553558 0,-3.328298 -0.018059,-4.5480515 -0.068422,-4.6211897 C 4.3322658,6.0723534 4.1907191,5.9326605 4.0553496,5.8165754 3.9199802,5.7004908 3.7727567,5.5162498 3.728186,5.4071509 3.6524816,5.221844 3.5275698,5.0950607 3.4207022,5.0950607 c -0.025297,0 -0.1815469,0.092342 -0.3472229,0.205204 C 2.8172292,5.4748279 2.7544416,5.4981583 2.6529825,5.4565093 2.4441631,5.3707899 2.4573971,5.2841844 2.7116431,5.0726215 2.9664446,4.8605965 3.0294397,4.6716175 2.8617668,4.6222659 2.8101685,4.6070788 2.6263911,4.594653 2.4533725,4.594653 c -0.59444,0 -1.2347971,-0.3717243 -1.3929913,-0.8086251 -0.2412597,-0.6663106 0.2380748,-1.3416516 1.0899892,-1.535701 0.1611253,-0.036701 0.4064142,-0.06673 0.5450866,-0.06673 0.2043641,0 0.2596507,-0.018172 0.2918207,-0.095915 C 3.0177243,2.0141025 2.9703146,1.9474906 2.7836909,1.8016374 2.5371235,1.608936 2.482407,1.47293 2.6115865,1.3738467 2.7347136,1.2794058 2.8647324,1.3133918 3.1063348,1.5031705 3.3508823,1.6952624 3.5827298,1.732109 3.6665713,1.5922065 3.9615254,1.1000291 4.0697446,0.97370971 4.3064958,0.84525171 4.6580562,0.65449983 4.878888,0.5989255 5.3014917,0.59485188 5.9446773,0.58865199 6.5001646,0.88284925 6.7246649,1.3485929 6.9153369,1.7441576 7.0279171,1.7751737 7.3476815,1.5202352 7.6491296,1.2798993 7.7346697,1.2545999 7.8769151,1.3637058 8.041302,1.4897932 8.031894,1.5196239 7.755106,1.7499456 7.5885015,1.8885808 7.5193429,1.9837481 7.5326959,2.0559976 7.5502709,2.1510826 7.5907519,2.1632717 7.9672413,2.1868273 8.458521,2.2175653 8.780294,2.3325716 9.074958,2.5827404 9.978223,3.3496119 9.238478,4.594653 7.8795747,4.594653 c -0.476971,0 -0.5327084,0.1327618 -0.1792261,0.4269012 0.2480092,0.206373 0.2849913,0.291632 0.1660674,0.3828495 C 7.7359696,5.5044561 7.5488219,5.4608251 7.3126285,5.2752948 7.0735754,5.0875186 6.893043,5.0555905 6.8079743,5.1860439 6.7835005,5.2235745 6.7140516,5.3461903 6.6536433,5.4585232 6.5932349,5.5708561 6.4315124,5.7599206 6.2942601,5.8786665 6.1570076,5.9974123 6.0166594,6.1744702 5.9823752,6.2721285 5.9414476,6.3887103 5.9253076,7.3067779 5.9353775,8.9454149 l 0.015337,2.4957261 0.8559529,0.01267 c 0.5076194,0.0075 0.8877658,0.03292 0.9341257,0.06243 0.1041564,0.0663 0.1101667,0.951211 0.00704,1.030339 -0.048708,0.03736 -0.3382599,0.05459 -0.9172119,0.05459 -0.7757539,0 -0.8511402,0.0073 -0.9074359,0.08799 -0.091575,0.131243 -0.079001,0.844984 0.01595,0.905427 0.042541,0.02708 0.3294508,0.05518 0.6375776,0.06243 l 0.5602308,0.0132 v 0.386679 0.386678 l -0.5602308,0.0132 c -0.3081268,0.0073 -0.5939963,0.03469 -0.6352653,0.06096 -0.046309,0.02948 -0.081596,0.189877 -0.092175,0.418972 l -0.017139,0.371208 -0.6555147,0.01278 c -0.3605331,0.007 -0.6741324,-0.0015 -0.6968872,-0.01896 z m 1.12613,-9.5272113 C 5.8103599,5.7152661 6.0809063,5.5238355 6.1932476,5.3588966 6.3307045,5.1570831 6.2998275,4.7918529 6.1260844,4.5644544 5.7071344,4.0161241 4.6024682,4.0711287 4.255239,4.6576093 3.9219026,5.2206248 4.4001282,5.8154745 5.1906565,5.821146 5.3271691,5.822124 5.5139942,5.8011529 5.6058234,5.7745407 Z M 3.0764976,4.1388381 C 3.518766,3.9657766 3.7625687,3.5209295 3.609772,3.1658154 3.2593835,2.3514799 1.7768033,2.4206259 1.5291525,3.2628534 1.47396,3.4505558 1.5597343,3.7503279 1.7171531,3.9198965 1.9923019,4.2162811 2.6201572,4.3174061 3.0764976,4.1388381 Z M 8.20314,4.1799794 C 8.876598,4.036572 9.19253,3.387655 8.804122,2.9455763 8.421803,2.510427 7.6713324,2.4381112 7.1743731,2.7885325 7.012961,2.9023493 6.8137876,3.2077357 6.8123364,3.3436336 6.8102474,3.5392173 6.9466725,3.7902722 7.147863,3.9610829 7.440109,4.2091998 7.7571164,4.2749566 8.20314,4.1799794 Z M 5.7664976,2.5089958 C 6.3568154,2.2503818 6.5115545,1.663874 6.0872588,1.2932145 5.8381371,1.0755849 5.6280653,1.0008155 5.2657359,1.0008155 c -0.6020013,0 -1.0051958,0.2695273 -1.0520942,0.7033036 -0.032341,0.2991221 0.057101,0.5174617 0.2786731,0.6802845 0.3411785,0.2507156 0.868576,0.3022856 1.2741828,0.1245922 z"
     id="path1965" />
</svg>
